<?xml version="1.0" encoding="utf-8"?><!-- Uploaded to: SVG Repo, www.svgrepo.com, Generator: SVG Repo Mixer Tools -->
<svg version="1.1" id="Uploaded to svgrepo.com" xmlns="http://www.w3.org/2000/svg" xmlns:xlink="http://www.w3.org/1999/xlink" 
	 width="800px" height="800px" viewBox="0 0 32 32" xml:space="preserve">
<style type="text/css">
	.linesandangles_een{fill:#111918;}
</style>
<path class="linesandangles_een" d="M24,19V7c0-1.657-1.343-3-3-3H7C5.343,4,4,5.343,4,7v5h4v12c0,1.657,1.343,3,3,3h14
	c1.657,0,3-1.343,3-3v-5H24z M8,10H6V7c0-0.551,0.449-1,1-1c0.552,0,1,0.448,1,1V10z M10,24V7c0-0.35-0.06-0.687-0.171-1H21
	c0.551,0,1,0.449,1,1v12H12v5c0,0.552-0.448,1-1,1C10.449,25,10,24.551,10,24z M26,24c0,0.551-0.449,1-1,1H13.829
	C13.94,24.687,14,24.35,14,24v-3h12V24z M20,12h-8v-2h8V12z M20,16h-8v-2h8V16z"/>
</svg>